<svg xmlns="http://www.w3.org/2000/svg" width="1920" height="1080" viewBox="0 0 1920 1080">
  <title>Zasób 2</title>
  <g id="Warstwa_2" data-name="Warstwa 2">
    <g id="Warstwa_5" data-name="Warstwa 5">
      <g>
        <polygon points="238.5 48.5 43.5 223.5 43.5 48.5 238.5 48.5" style="fill: #0f0f0f"/>
        <polygon points="1681 48 1876 223 1876 48 1681 48" style="fill: #0f0f0f"/>
        <polygon points="44 837 219 1032 44 1032 44 837" style="fill: #0f0f0f"/>
        <polygon points="1876 837 1701 1032 1876 1032 1876 837" style="fill: #0f0f0f"/>
        <polygon points="1876 48 1876 0 1920 0 1920 1080 1876 1080 1876 1032 1876 48" style="fill: #0f0f0f"/>
        <rect width="1876" height="111" style="fill: #0f0f0f"/>
        <polygon points="0 1080 0 48 44 48.5 44 1031.5 44 1080 0 1080" style="fill: #0f0f0f"/>
        <polygon points="1876 997.71 1876 1080 44 1080 44 996 1876 997.71" style="fill: #0f0f0f"/>
        <polygon points="219 1031 533 48 562 48 238 1031 219 1031" style="fill: #0f0f0f"/>
        <polygon points="1701 1031 1387 48 1358 48 1682 1031 1701 1031" style="fill: #0f0f0f"/>
      </g>
    </g>
    <g id="Warstwa_3" data-name="Warstwa 3">
      <g style="opacity: 0.2">
        <path d="M1069,996H854V922.5q104.5,61.21,215,0Z" style="fill: #2241b2;opacity: 0.6"/>
      </g>
    </g>
    <g id="Warstwa_4" data-name="Warstwa 4">
      <circle cx="959.5" cy="794.5" r="140" style="fill: #2241b2;stroke: #fff;stroke-miterlimit: 10;opacity: 0.2"/>
      <ellipse cx="959.5" cy="795" rx="140" ry="77.5" style="fill: #3050aa;stroke: #fff;stroke-miterlimit: 10;opacity: 0.3"/>
      <circle cx="961" cy="795" r="10" style="fill: #9e2900;opacity: 0.6"/>
      <ellipse cx="959.82" cy="795" rx="107.48" ry="59.5" style="fill: none;stroke: #fff;stroke-miterlimit: 10;opacity: 0.4"/>
      <ellipse cx="959.89" cy="795" rx="71.35" ry="39.5" style="fill: none;stroke: #fff;stroke-miterlimit: 10;opacity: 0.4"/>
      <ellipse cx="960.52" cy="795" rx="37.03" ry="20.5" style="fill: none;stroke: #fff;stroke-miterlimit: 10;opacity: 0.4"/>
      <ellipse cx="959.66" cy="794.22" rx="7.87" ry="138.77" transform="translate(-230.8 427.41) rotate(-22.49)" style="fill: none;stroke: #fff;stroke-miterlimit: 10;opacity: 0.6"/>
      <circle cx="1024.5" cy="811.5" r="6.5" style="fill: #fff"/>
      <circle cx="865.5" cy="762.5" r="6.5" style="fill: #fff"/>
      <circle cx="989.5" cy="782.5" r="6.5" style="fill: #009245"/>
      <circle cx="989.5" cy="888.5" r="7.5" style="fill: #662d91"/>
    </g>
  </g>
</svg>
